<svg id="Layer_1" data-name="Layer 1" xmlns="http://www.w3.org/2000/svg" xmlns:xlink="http://www.w3.org/1999/xlink" width="61" height="32" viewBox="0 0 61 32"><defs><style>.cls-1{fill:none;}.cls-2{fill:#2775ca;}.cls-3{fill:#fff;}.cls-4{fill:#e02b59;}.cls-5{clip-path:url(#clip-path);}.cls-6{clip-path:url(#clip-path-2);}</style><clipPath id="clip-path"><path class="cls-1" d="M10.8,19.54H8.24V16.77H10.8s1.6-.21,1.62,1.33-1.3,1.44-1.62,1.44Zm0-8.33a1.16,1.16,0,0,1,1.1,1.21c0,1.4-1.1,1.35-1.1,1.35H8.24V11.21ZM14,15.09a3.44,3.44,0,0,0,1.34-3.28C15.2,9.37,12.73,8,10.8,8H4.86V22.73H10.8a5.53,5.53,0,0,0,3-.68,4.21,4.21,0,0,0,2.08-3.37C15.8,15.71,14,15.09,14,15.09Z"/></clipPath><clipPath id="clip-path-2"><path class="cls-1" d="M19.91,16.43a2.11,2.11,0,0,1,2.28-1.66,2.21,2.21,0,0,1,2.27,1.66Zm6.63-2.35A5.36,5.36,0,0,0,21.28,12a5.35,5.35,0,0,0-4.07,2.91,6.1,6.1,0,0,0,.29,5.66,5.76,5.76,0,0,0,3.32,2.29s4.09,1.06,6.24-2l-2.55-1.46a3,3,0,0,1-2.54.75c-1.71-.25-2-1.38-2-1.38h7.43A6.15,6.15,0,0,0,26.54,14.08Z"/></clipPath></defs><path class="cls-2" d="M44.94,32a16,16,0,1,0-16-16A16,16,0,0,0,44.94,32Z"/><path class="cls-3" d="M49.34,18.53c0-2.33-1.4-3.13-4.2-3.46-2-.27-2.4-.8-2.4-1.74s.67-1.53,2-1.53a2,2,0,0,1,2.2,1.4.51.51,0,0,0,.47.33h1.07a.45.45,0,0,0,.46-.46V13a3.31,3.31,0,0,0-3-2.73V8.67c0-.27-.2-.47-.53-.54h-1c-.27,0-.47.2-.53.54V10.2a3.41,3.41,0,0,0-3.27,3.27c0,2.2,1.33,3.06,4.13,3.4,1.87.33,2.47.73,2.47,1.8a2,2,0,0,1-2.2,1.8c-1.73,0-2.33-.74-2.53-1.74a.5.5,0,0,0-.47-.4H40.88a.46.46,0,0,0-.47.47v.07c.27,1.66,1.33,2.86,3.53,3.2v1.6c0,.26.2.46.54.53h1c.26,0,.46-.2.53-.53v-1.6a3.66,3.66,0,0,0,3.33-3.54Z"/><path class="cls-3" d="M41.54,25.53a10,10,0,0,1,0-18.73.66.66,0,0,0,.4-.67V5.2a.49.49,0,0,0-.4-.53.42.42,0,0,0-.26.06,12,12,0,0,0,0,22.87.41.41,0,0,0,.6-.27c.06-.06.06-.13.06-.26v-.94A.9.9,0,0,0,41.54,25.53Zm7.07-20.8A.41.41,0,0,0,48,5c-.07.07-.07.13-.07.27V6.2a.9.9,0,0,0,.4.67,10,10,0,0,1,0,18.73.67.67,0,0,0-.4.67v.93a.5.5,0,0,0,.4.53.45.45,0,0,0,.27-.06,12.05,12.05,0,0,0,0-22.94Z"/><circle id="Oval" class="cls-4" cx="16" cy="16" r="16"/><g class="cls-5"><rect class="cls-3" x="4.7" y="7.85" width="11.33" height="15.19"/></g><g class="cls-6"><rect class="cls-3" x="16.23" y="11.67" width="11.62" height="11.56"/></g></svg>