<svg id="Layer_1" data-name="Layer 1" xmlns="http://www.w3.org/2000/svg" xmlns:xlink="http://www.w3.org/1999/xlink" width="32" height="32" viewBox="0 0 32 32"><defs><style>.cls-1{fill:none;}.cls-2{fill:#e02b59;}.cls-3{clip-path:url(#clip-path);}.cls-4{fill:#fff;}.cls-5{clip-path:url(#clip-path-2);}</style><clipPath id="clip-path"><path class="cls-1" d="M10.8,19.54H8.24V16.77H10.8s1.6-.21,1.62,1.33-1.3,1.44-1.62,1.44Zm0-8.33a1.16,1.16,0,0,1,1.1,1.21c0,1.4-1.1,1.35-1.1,1.35H8.24V11.21ZM14,15.09a3.44,3.44,0,0,0,1.34-3.28C15.2,9.37,12.73,8,10.8,8H4.86V22.73H10.8a5.53,5.53,0,0,0,3-.68,4.21,4.21,0,0,0,2.08-3.37C15.8,15.71,14,15.09,14,15.09Z"/></clipPath><clipPath id="clip-path-2"><path class="cls-1" d="M19.91,16.43a2.11,2.11,0,0,1,2.28-1.66,2.21,2.21,0,0,1,2.27,1.66Zm6.63-2.35A5.36,5.36,0,0,0,21.28,12a5.35,5.35,0,0,0-4.07,2.91,6.1,6.1,0,0,0,.29,5.66,5.76,5.76,0,0,0,3.32,2.29s4.09,1.06,6.24-2l-2.55-1.46a3,3,0,0,1-2.54.75c-1.71-.25-2-1.38-2-1.38h7.43A6.15,6.15,0,0,0,26.54,14.08Z"/></clipPath></defs><circle id="Oval" class="cls-2" cx="16" cy="16" r="16"/><g class="cls-3"><rect class="cls-4" x="4.7" y="7.85" width="11.33" height="15.19"/></g><g class="cls-5"><rect class="cls-4" x="16.23" y="11.67" width="11.62" height="11.56"/></g></svg>