<svg id="Layer_1" data-name="Layer 1" xmlns="http://www.w3.org/2000/svg" width="32" height="32" viewBox="0 0 32 32"><defs><style>.cls-1{fill:#2775ca;}.cls-2{fill:#fff;}</style></defs><path class="cls-1" d="M16,32A16,16,0,1,0,0,16,16,16,0,0,0,16,32Z"/><path class="cls-2" d="M20.4,18.53c0-2.33-1.4-3.13-4.2-3.46-2-.27-2.4-.8-2.4-1.74s.67-1.53,2-1.53A2,2,0,0,1,18,13.2a.51.51,0,0,0,.47.33h1.06a.45.45,0,0,0,.47-.46V13a3.33,3.33,0,0,0-3-2.73V8.67c0-.27-.2-.47-.53-.54h-1c-.27,0-.47.2-.54.54V10.2a3.4,3.4,0,0,0-3.26,3.27c0,2.2,1.33,3.06,4.13,3.4,1.87.33,2.47.73,2.47,1.8a2,2,0,0,1-2.2,1.8c-1.74,0-2.34-.74-2.54-1.74a.48.48,0,0,0-.46-.4H11.93a.45.45,0,0,0-.46.47v.07c.26,1.66,1.33,2.86,3.53,3.2v1.6c0,.26.2.46.53.53h1c.27,0,.47-.2.54-.53v-1.6a3.66,3.66,0,0,0,3.33-3.54Z"/><path class="cls-2" d="M12.6,25.53a10,10,0,0,1,0-18.73.66.66,0,0,0,.4-.67V5.2a.49.49,0,0,0-.4-.53.45.45,0,0,0-.27.06,12,12,0,0,0,0,22.87.4.4,0,0,0,.6-.27c.07-.06.07-.13.07-.26v-.94A.9.9,0,0,0,12.6,25.53Zm7.07-20.8a.4.4,0,0,0-.6.27c-.07.07-.07.13-.07.27V6.2a.9.9,0,0,0,.4.67,10,10,0,0,1,0,18.73.66.66,0,0,0-.4.67v.93a.49.49,0,0,0,.4.53.45.45,0,0,0,.27-.06,12,12,0,0,0,7.8-15.07,12.11,12.11,0,0,0-7.8-7.87Z"/></svg>